<svg width="48" height="48" viewBox="0 0 48 48" fill="none" xmlns="http://www.w3.org/2000/svg">
<path fill-rule="evenodd" clip-rule="evenodd" d="M23.2773 41.2861C23.0043 41.7298 22.5207 42 21.9998 42H11.4998C10.977 42 10.492 41.7278 10.2196 41.2817L0.719568 25.7229C0.428289 25.2458 0.426414 24.6464 0.714699 24.1675L11.2147 6.72635C11.486 6.27562 11.9737 6 12.4998 6H20.4998C21.3282 6 21.9998 6.67157 21.9998 7.5C21.9998 8.32843 21.3282 9 20.4998 9H13.3476L3.75395 24.9357L12.3414 39H21.1616L24.7223 33.2139C25.1565 32.5083 26.0804 32.2883 26.7859 32.7225C27.4915 33.1567 27.7115 34.0806 27.2773 34.7861L23.2773 41.2861Z" fill="#040531"/>
<path fill-rule="evenodd" clip-rule="evenodd" d="M24.7227 6.71385C24.9957 6.27023 25.4793 6 26.0002 6H36.5002C37.023 6 37.508 6.27215 37.7804 6.71831L47.2804 22.2771C47.5717 22.7542 47.5736 23.3536 47.2853 23.8325L36.7853 41.2737C36.514 41.7244 36.0263 42 35.5002 42H27.5002C26.6718 42 26.0002 41.3284 26.0002 40.5C26.0002 39.6716 26.6718 39 27.5002 39H34.6524L44.2461 23.0643L35.6586 9H26.8384L23.2777 14.7861C22.8435 15.4917 21.9196 15.7117 21.2141 15.2775C20.5085 14.8433 20.2885 13.9194 20.7227 13.2139L24.7227 6.71385Z" fill="#040531"/>
<rect x="28" y="20" width="8" height="8" transform="rotate(90 28 20)" fill="url(#paint0_linear)"/>
<defs>
<linearGradient id="paint0_linear" x1="32" y1="20" x2="32" y2="28" gradientUnits="userSpaceOnUse">
<stop stop-color="#38CCED"/>
<stop offset="1" stop-color="#38CCED" stop-opacity="0.4"/>
</linearGradient>
</defs>
</svg>
