<svg width="48" height="48" viewBox="0 0 48 48" fill="none" xmlns="http://www.w3.org/2000/svg">
<path fill-rule="evenodd" clip-rule="evenodd" d="M24.795 40.6804C25.3808 40.0946 26.3306 40.0946 26.9164 40.6804L28.5909 42.355C29.1767 42.9408 29.1767 43.8905 28.5909 44.4763C28.0051 45.0621 27.0554 45.0621 26.4696 44.4763L24.795 42.8017C24.2092 42.216 24.2092 41.2662 24.795 40.6804ZM40.4846 24.9908C41.0704 24.405 42.0202 24.405 42.606 24.9908L44.2805 26.6654C44.8663 27.2512 44.8663 28.2009 44.2805 28.7867C43.6947 29.3725 42.745 29.3725 42.1592 28.7867L40.4846 27.1121C39.8989 26.5264 39.8989 25.5766 40.4846 24.9908Z" fill="#040531"/>
<path fill-rule="evenodd" clip-rule="evenodd" d="M30.0255 35.4508C30.6113 34.865 31.561 34.865 32.1468 35.4508L36.0089 39.3129C36.5947 39.8986 36.5947 40.8484 36.0089 41.4342C35.4231 42.02 34.4734 42.02 33.8876 41.4342L30.0255 37.5721C29.4397 36.9863 29.4397 36.0365 30.0255 35.4508ZM35.2554 30.2209C35.8412 29.6351 36.7909 29.6351 37.3767 30.2209L41.2388 34.083C41.8246 34.6688 41.8246 35.6185 41.2388 36.2043C40.653 36.7901 39.7033 36.7901 39.1175 36.2043L35.2554 32.3422C34.6696 31.7564 34.6696 30.8067 35.2554 30.2209Z" fill="#040531"/>
<path fill-rule="evenodd" clip-rule="evenodd" d="M6.14124 5.74911C5.79225 5.68021 5.48497 5.98749 5.55387 6.33648L6.89152 13.112C8.10119 19.2392 11.1049 24.8685 15.5211 29.2847L25.5705 39.334L39.1388 25.7658L29.0894 15.7164C24.6732 11.3002 19.0439 8.29643 12.9167 7.08677L6.14124 5.74911ZM2.61068 6.91754C2.12838 4.4746 4.27936 2.32362 6.7223 2.80592L13.4978 4.14357C20.2085 5.46844 26.374 8.75828 31.2108 13.5951L43.3814 25.7658L25.5705 43.5767L13.3998 31.406C8.56303 26.5692 5.27321 20.4038 3.94833 13.693L2.61068 6.91754Z" fill="#040531"/>
<rect width="8" height="8" transform="matrix(0.707107 -0.707107 -0.707107 -0.707107 23.6562 29.3137)" fill="url(#paint0_linear)"/>
<defs>
<linearGradient id="paint0_linear" x1="8" y1="5.54708e-06" x2="0" y2="5.63401e-06" gradientUnits="userSpaceOnUse">
<stop stop-color="#38CCED"/>
<stop offset="1" stop-color="#38CCED" stop-opacity="0.4"/>
</linearGradient>
</defs>
</svg>
