<svg width="48" height="48" viewBox="0 0 48 48" fill="none" xmlns="http://www.w3.org/2000/svg">
<rect y="32" width="28" height="4" fill="url(#paint0_linear)"/>
<path fill-rule="evenodd" clip-rule="evenodd" d="M6.22311 42L41.778 42C40.4051 32.8335 32.8695 26 24.0006 26C15.1317 26 7.59604 32.8335 6.22311 42ZM3.08607 43.0012C4.05005 31.7876 13.0457 23 24.0006 23C34.9554 23 43.9511 31.7876 44.9151 43.0012C45.0097 44.1017 44.1051 45 43.0006 45L5.00057 45C3.896 45 2.99147 44.1017 3.08607 43.0012Z" fill="#040531"/>
<path fill-rule="evenodd" clip-rule="evenodd" d="M24 20C27.866 20 31 16.866 31 13C31 9.13401 27.866 6 24 6C20.134 6 17 9.13401 17 13C17 16.866 20.134 20 24 20ZM24 23C29.5228 23 34 18.5228 34 13C34 7.47715 29.5228 3 24 3C18.4772 3 14 7.47715 14 13C14 18.5228 18.4772 23 24 23Z" fill="#040531"/>
<path fill-rule="evenodd" clip-rule="evenodd" d="M7.1384 23.4603C5.64329 24.7577 5.483 27.0215 6.78037 28.5166C7.32332 29.1423 7.25624 30.0896 6.63054 30.6326C6.00484 31.1755 5.05747 31.1085 4.51452 30.4828C2.13124 27.7362 2.4257 23.5777 5.17221 21.1945C7.91871 18.8112 12.0772 19.1056 14.4605 21.8522C15.0034 22.4778 14.9364 23.4252 14.3107 23.9682C13.685 24.5111 12.7376 24.444 12.1946 23.8183C10.8973 22.3232 8.6335 22.1629 7.1384 23.4603Z" fill="#040531"/>
<path fill-rule="evenodd" clip-rule="evenodd" d="M41.1302 23.6558C39.7304 22.256 37.461 22.256 36.0613 23.6558C35.4755 24.2415 34.5257 24.2415 33.9399 23.6558C33.3541 23.07 33.3541 22.1202 33.9399 21.5344C36.5112 18.9631 40.6802 18.9631 43.2515 21.5344C45.8228 24.1057 45.8228 28.2747 43.2515 30.846C42.6657 31.4318 41.7159 31.4318 41.1302 30.846C40.5444 30.2602 40.5444 29.3104 41.1302 28.7247C42.5299 27.3249 42.5299 25.0555 41.1302 23.6558Z" fill="#040531"/>
<defs>
<linearGradient id="paint0_linear" x1="28" y1="32" x2="0" y2="32" gradientUnits="userSpaceOnUse">
<stop stop-color="#38CCED"/>
<stop offset="1" stop-color="#38CCED" stop-opacity="0.4"/>
</linearGradient>
</defs>
</svg>
