<svg width="48" height="48" viewBox="0 0 48 48" fill="none" xmlns="http://www.w3.org/2000/svg">
<rect width="8" height="8" transform="matrix(1 -8.74228e-08 -8.74228e-08 -1 37 40)" fill="url(#paint0_linear)"/>
<rect width="8" height="8" transform="matrix(1 -8.74228e-08 -8.74228e-08 -1 20 45)" fill="url(#paint1_linear)"/>
<rect width="8" height="8" transform="matrix(1 -8.74228e-08 -8.74228e-08 -1 3 40)" fill="url(#paint2_linear)"/>
<path fill-rule="evenodd" clip-rule="evenodd" d="M24 3.5C24.8284 3.5 25.5 4.17157 25.5 5V41C25.5 41.8284 24.8284 42.5 24 42.5C23.1716 42.5 22.5 41.8284 22.5 41V5C22.5 4.17157 23.1716 3.5 24 3.5Z" fill="#040531"/>
<path fill-rule="evenodd" clip-rule="evenodd" d="M31 3C30.1716 3 29.5 3.67157 29.5 4.5V30C29.5 34.1421 32.8579 37.5 37 37.5H41C41.8284 37.5 42.5 36.8284 42.5 36C42.5 35.1716 41.8284 34.5 41 34.5H37C34.5147 34.5 32.5 32.4853 32.5 30V4.5C32.5 3.67157 31.8284 3 31 3Z" fill="#040531"/>
<path fill-rule="evenodd" clip-rule="evenodd" d="M17 3C17.8284 3 18.5 3.67157 18.5 4.5V30C18.5 34.1421 15.1421 37.5 11 37.5H7C6.17157 37.5 5.5 36.8284 5.5 36C5.5 35.1716 6.17157 34.5 7 34.5H11C13.4853 34.5 15.5 32.4853 15.5 30V4.5C15.5 3.67157 16.1716 3 17 3Z" fill="#040531"/>
<defs>
<linearGradient id="paint0_linear" x1="8" y1="5.54708e-06" x2="0" y2="5.63401e-06" gradientUnits="userSpaceOnUse">
<stop stop-color="#38CCED"/>
<stop offset="1" stop-color="#38CCED" stop-opacity="0.4"/>
</linearGradient>
<linearGradient id="paint1_linear" x1="8" y1="5.54708e-06" x2="0" y2="5.63401e-06" gradientUnits="userSpaceOnUse">
<stop stop-color="#38CCED"/>
<stop offset="1" stop-color="#38CCED" stop-opacity="0.4"/>
</linearGradient>
<linearGradient id="paint2_linear" x1="8" y1="5.54708e-06" x2="0" y2="5.63401e-06" gradientUnits="userSpaceOnUse">
<stop stop-color="#38CCED"/>
<stop offset="1" stop-color="#38CCED" stop-opacity="0.4"/>
</linearGradient>
</defs>
</svg>
