<svg width="48" height="48" viewBox="0 0 48 48" fill="none" xmlns="http://www.w3.org/2000/svg">
<rect x="11" y="37" width="8" height="8" transform="rotate(90 11 37)" fill="url(#paint0_linear)"/>
<rect x="11" y="3" width="8" height="8" transform="rotate(90 11 3)" fill="url(#paint1_linear)"/>
<rect x="28" y="37" width="8" height="8" transform="rotate(90 28 37)" fill="url(#paint2_linear)"/>
<rect x="28" y="3" width="8" height="8" transform="rotate(90 28 3)" fill="url(#paint3_linear)"/>
<rect x="45" y="37" width="8" height="8" transform="rotate(90 45 37)" fill="url(#paint4_linear)"/>
<rect x="45" y="3" width="8" height="8" transform="rotate(90 45 3)" fill="url(#paint5_linear)"/>
<path fill-rule="evenodd" clip-rule="evenodd" d="M7 42.5C6.17157 42.5 5.5 41.8284 5.5 41L5.5 7C5.5 6.17157 6.17157 5.5 7 5.5C7.82843 5.5 8.5 6.17157 8.5 7L8.5 41C8.5 41.8284 7.82843 42.5 7 42.5Z" fill="#040531"/>
<path fill-rule="evenodd" clip-rule="evenodd" d="M41 5.5C41.8284 5.5 42.5 6.17157 42.5 7L42.5 41C42.5 41.8284 41.8284 42.5 41 42.5C40.1716 42.5 39.5 41.8284 39.5 41L39.5 7C39.5 6.17157 40.1716 5.5 41 5.5Z" fill="#040531"/>
<path fill-rule="evenodd" clip-rule="evenodd" d="M24 5.5C24.8284 5.5 25.5 6.17157 25.5 7L25.5 41C25.5 41.8284 24.8284 42.5 24 42.5C23.1716 42.5 22.5 41.8284 22.5 41L22.5 7C22.5 6.17157 23.1716 5.5 24 5.5Z" fill="#040531"/>
<path fill-rule="evenodd" clip-rule="evenodd" d="M42.5 24C42.5 24.8284 41.8284 25.5 41 25.5L7 25.5C6.17157 25.5 5.5 24.8284 5.5 24C5.5 23.1716 6.17157 22.5 7 22.5L41 22.5C41.8284 22.5 42.5 23.1716 42.5 24Z" fill="#040531"/>
<defs>
<linearGradient id="paint0_linear" x1="15" y1="37" x2="15" y2="45" gradientUnits="userSpaceOnUse">
<stop stop-color="#38CCED"/>
<stop offset="1" stop-color="#38CCED" stop-opacity="0.4"/>
</linearGradient>
<linearGradient id="paint1_linear" x1="15" y1="3" x2="15" y2="11" gradientUnits="userSpaceOnUse">
<stop stop-color="#38CCED"/>
<stop offset="1" stop-color="#38CCED" stop-opacity="0.4"/>
</linearGradient>
<linearGradient id="paint2_linear" x1="32" y1="37" x2="32" y2="45" gradientUnits="userSpaceOnUse">
<stop stop-color="#38CCED"/>
<stop offset="1" stop-color="#38CCED" stop-opacity="0.4"/>
</linearGradient>
<linearGradient id="paint3_linear" x1="32" y1="3" x2="32" y2="11" gradientUnits="userSpaceOnUse">
<stop stop-color="#38CCED"/>
<stop offset="1" stop-color="#38CCED" stop-opacity="0.4"/>
</linearGradient>
<linearGradient id="paint4_linear" x1="49" y1="37" x2="49" y2="45" gradientUnits="userSpaceOnUse">
<stop stop-color="#38CCED"/>
<stop offset="1" stop-color="#38CCED" stop-opacity="0.4"/>
</linearGradient>
<linearGradient id="paint5_linear" x1="49" y1="3" x2="49" y2="11" gradientUnits="userSpaceOnUse">
<stop stop-color="#38CCED"/>
<stop offset="1" stop-color="#38CCED" stop-opacity="0.4"/>
</linearGradient>
</defs>
</svg>
